<svg width="2062" height="538" viewBox="0 0 2062 538" fill="none" xmlns="http://www.w3.org/2000/svg">
<path d="M1411 209.6C1375.6 214 1349.5 234.1 1339.9 264.1C1333.3 284.5 1334.1 303.9 1342.4 323.6C1352.2 346.9 1373.3 363.5 1401.3 369.8C1409.4 371.7 1430.3 371.8 1438.7 370.2C1471.2 363.8 1493.9 343.6 1503.3 313C1505.5 305.7 1505.8 303.5 1505.8 290.5C1505.8 277.5 1505.5 275.3 1503.3 268C1494 237.8 1472.1 217.9 1440.8 211.3C1434.3 210 1416.5 209 1411 209.6ZM1430.8 249.3C1442.5 252.4 1453.6 260 1458.7 268.9C1466.6 282.3 1466.3 300 1458.1 312.8C1443.4 335.9 1409.8 339.7 1389.6 320.5C1372.8 304.5 1372.2 279.1 1388.2 261.8C1398.9 250.4 1415.9 245.5 1430.8 249.3Z" fill="#1D1D1B"/>
<path d="M1584 209.6C1548.6 214 1522.5 234.1 1512.9 264.1C1506.3 284.5 1507.1 303.9 1515.4 323.6C1525.2 346.9 1546.3 363.5 1574.3 369.8C1582.4 371.7 1603.3 371.8 1611.7 370.2C1644.2 363.8 1666.9 343.6 1676.3 313C1678.5 305.7 1678.8 303.5 1678.8 290.5C1678.8 277.5 1678.5 275.3 1676.3 268C1667 237.8 1645.1 217.9 1613.8 211.3C1607.3 210 1589.5 209 1584 209.6ZM1603.9 249.3C1615.7 252.4 1626.7 260 1631.8 268.9C1639.7 282.3 1639.4 300 1631.2 312.8C1616.5 335.9 1582.9 339.7 1562.7 320.5C1545.9 304.5 1545.3 279.1 1561.3 261.8C1571.9 250.4 1588.9 245.5 1603.9 249.3Z" fill="#1D1D1B"/>
<path d="M1817 210.1C1796.4 213.1 1780.9 226.3 1775.9 245.3C1771.1 263.2 1774.5 281.5 1784.1 290.4C1789.8 295.7 1796.6 298.8 1815.3 304.8C1833.4 310.6 1837.5 313.1 1839.4 319.2C1841.5 326.2 1836.3 334.6 1828.4 336.8C1824.1 338 1816 338 1810.6 336.7C1804.7 335.3 1794.1 330.1 1789.6 326.2C1787.6 324.3 1785.3 322.9 1784.9 322.9C1784.5 322.9 1782.2 326.3 1780 330.5C1776.9 336.4 1775.9 337.7 1775.7 336.1L1775.4 334.1H1751.3H1727.3V273.5V212.9H1707.4H1687.5V290.6V368.3H1731.4H1775.3V364C1775.3 361.7 1775.5 359.8 1775.7 359.8C1775.9 359.8 1779.5 361.5 1783.7 363.4C1796.7 369.5 1805 371.3 1821.1 371.3C1836.8 371.3 1844.2 369.9 1853.9 365.2C1861.6 361.5 1872 351.2 1875.5 344C1882.4 329.6 1883.4 310.2 1877.6 297.9C1876.6 295.6 1873.2 291.1 1870 288C1863.2 281.2 1855.9 277.5 1837.2 271.5C1829.8 269.2 1822.4 266.4 1820.7 265.4C1814.7 261.7 1813.5 253.6 1818.2 248.5C1826.4 239.7 1841 240.5 1856.2 250.6L1859.2 252.5L1867.3 237C1871.6 228.6 1875.2 221.5 1875 221.4C1874.1 220.5 1862.8 216 1856.4 214C1842.9 209.8 1828.7 208.3 1817 210.1Z" fill="#1D1D1B"/>
<path d="M699 268.5V370.9H735.2C755.1 370.9 775.9 370.3 781.3 369.7C826 364.2 859 337.1 869.6 297.3C873.1 284.1 873.9 260.9 871.4 247.1C866.3 220.3 852.4 198.7 831 184.1C821.4 177.5 812.8 173.9 799 170.1C788.2 167.2 786.5 167.2 743.5 166.6L699.1 166.1V268.5H699ZM778 207.9C806.1 213.9 824.8 237.4 824.8 266.8C824.7 286.3 818.7 303.1 807.5 314.2C796.4 325.4 779.9 330.8 756.9 330.9H746V268.6V206.3H758.1C764.7 206.3 773.6 207.1 778 207.9Z" fill="#1D1D1B"/>
<path d="M888.301 268.6V370.9L974.501 370.8H1060.6L1082.8 339.6C1095.1 322.6 1105.4 308.6 1105.7 308.6C1106.2 308.6 1116.5 322.6 1128.7 339.8L1151 371H1179C1194.3 371 1206.9 370.6 1206.9 370.3C1206.9 369.9 1190.4 346.9 1170.5 319.2L1134.1 268.8L1168.9 220.2C1188.1 193.6 1204.8 170.7 1205.9 169.4C1208.1 167.2 1208.1 167.5 1208.1 188V208.8H1229.3H1250.5V289.9V371H1275.8H1301.1V289.9V208.8L1325.8 208.6L1350.4 208.2L1337.2 187.4L1324 166.6L1237.6 166.5H1151.1L1128.9 197.7C1116.6 214.7 1106.3 228.7 1106 228.9C1105.6 228.9 1095.3 214.9 1083.1 197.7L1060.8 166.5H974.701H888.501V268.6H888.301ZM1040.4 217.4C1060.2 244.8 1076.4 267.8 1076.4 268.5C1076.4 269.2 1060.2 292.4 1040.3 320L1004.1 370.2L1003.7 350.6L1003.5 331H969.401H935.301V308V285.1H962.901H990.501V265.7V246.3H962.901H935.301V226.3V206.3H969.401H1003.5V186.9C1003.5 176.2 1003.7 167.5 1004 167.5C1004.3 167.5 1020.6 190 1040.4 217.4Z" fill="#1D1D1B"/>
<path fill-rule="evenodd" clip-rule="evenodd" d="M342 30.5002C310 47.2002 283.7 61.3002 283.8 61.9002C283.8 63.4002 360.7 102.3 363.4 102.2C364.6 102.2 373.6 98.0002 383.4 93.0002L401.2 83.9002L420.6 93.9002L440 103.9L471.8 89.6002C519.6 68.1002 524.6 65.7002 523.8 65.0002C522.8 63.9002 505.6 54.7002 459 30.2002C436.5 18.4002 414.7 6.70018 410.5 4.40018C406.3 2.00018 402.3 0.200195 401.6 0.200195C400.9 0.200195 374 13.8002 342 30.5002ZM201.5 103.3L168.1 120.5V196.1C168.1 237.7 168.5 271.7 169.1 271.7C169.6 271.7 186 264.6 205.6 255.9L241.1 240.1V160.4L258.4 169.8C271.8 177.1 285.1 184.3 298.5 191.6L321.3 203.9L331.4 199.3C337.8 196.4 344.1 193.5 350.4 190.6C355.3 188.3 367.3 182.9 377.1 178.6C386.9 174.3 395.9 169.9 397.2 168.9C398.9 167.6 378.1 156.1 320.3 126.4C276.7 104 239.6 85.8002 237.9 85.9002C236.2 86.0002 219.8 93.8002 201.5 103.3ZM529.7 108.1C507 118.4 488.4 127.2 488.4 127.7C488.4 128.2 500.8 135.6 515.9 144.1C531.1 152.6 543.4 160 543.4 160.6C543.4 161.2 530 167.7 513.6 175C497.2 182.4 455.8 201.1 421.5 216.6L306.8 268.5C277.9 281.5 251.9 293.3 249 294.6C190.1 321.3 173.8 328.7 171.6 330C169.4 331.3 168.9 338.7 168.5 376L168 420.5L197.8 435.7L227.6 450.9L269 432.2C291.7 421.9 310.4 413 310.4 412.3C310.4 411.6 306.2 408.9 301.1 406.2C296 403.5 285.4 397.5 277.5 392.9C269.7 388.3 261.9 384.1 260.2 383.5C258.5 382.9 257.1 382 257.1 381.3C257.1 380.7 275.3 372 297.6 362.1C340.8 342.8 373.8 327.9 444.7 295.8C476.4 281.5 508.1 267.1 539.9 252.8C567.8 240.2 600.2 225.5 611.9 220.1L633.2 210.3L633.7 165.3L634.2 120.3L604 104.9C587.4 96.4002 573.1 89.4002 572.4 89.4002C571.6 89.4002 552.4 97.9002 529.7 108.1ZM625.2 270.5C620.7 272.7 611.9 276.8 605.6 279.6C599.3 282.4 587.3 287.8 579 291.6L563.9 298.5L563.6 338C563.4 359.7 562.6 377.4 561.8 377.3C560 377 531.7 362.5 503.2 347.2C482.6 336.2 481.3 335.7 476.5 338.1C473.7 339.5 457 347 439.4 354.7C421.8 362.5 406.8 369.3 406.1 370C405.4 370.6 440.8 389.8 484.9 412.7L564.9 454.3L599.1 436.6C617.9 426.9 633.9 418 634.6 416.9C636.3 414.4 636.1 266.2 634.5 266.4C633.8 266.5 629.6 268.3 625.2 270.5ZM435.8 444.4C429.9 446.9 423.9 449.5 418 452.1C400.1 459.8 403.6 460.1 382.3 449.5C368.1 442.4 362 440.3 359.3 441.3C357.3 442.1 340.2 449.8 321.2 458.4C302.3 467 286.1 474.1 285.3 474.1C277.3 474.1 290.6 482 341.6 507.7L401.4 537.9L426.6 525.5C440.4 518.7 468.4 505 488.6 495.1C508.9 485.2 525.2 476.9 524.9 476.5C524.6 476.2 507.6 467.5 487.1 457.1L449.9 438.3L435.8 444.4Z" fill="#05A3C9"/>
</svg>
